Coordinates
version=1
nRows=16
nColumns=40
inDegrees=yes

Units are S.I. units (second, meters, Newtons, ...)
Angles are in degrees.

endheader
time	pelvis_tilt	pelvis_list	pelvis_rotation	pelvis_tx	pelvis_ty	pelvis_tz	hip_flexion_r	hip_adduction_r	hip_rotation_r	knee_angle_r	knee_angle_r_beta	ankle_angle_r	subtalar_angle_r	mtp_angle_r	hip_flexion_l	hip_adduction_l	hip_rotation_l	knee_angle_l	knee_angle_l_beta	ankle_angle_l	subtalar_angle_l	mtp_angle_l	lumbar_extension	lumbar_bending	lumbar_rotation	arm_flex_r	arm_add_r	arm_rot_r	elbow_flex_r	pro_sup_r	wrist_flex_r	wrist_dev_r	arm_flex_l	arm_add_l	arm_rot_l	elbow_flex_l	pro_sup_l	wrist_flex_l	wrist_dev_l
     34.33214286	     -3.95687569	     -4.64185086	      7.28174285	      0.96224352	      0.91480490	      0.47094729	     -3.62173489	      4.42007286	    -17.57690501	     10.90830120	     10.90830120	     19.32645868	      2.53250618	     -3.36085477	     31.17029869	     -4.55327736	     -1.77818962	     22.64728946	     22.64728946	      2.99795167	     -9.62901873	      6.40537186	     -6.18303800	      5.67859240	      5.06574548	     45.20424464	    -18.14969061	     -9.90252648	     76.90890719	     45.12010850	      0.00000000	      0.00000000	    -15.88023732	     -6.53893201	      5.96801426	     21.67362909	     44.66424139	      0.00000000	      0.00000000
     34.34428571	     -4.09742836	     -4.37462922	      6.96470335	      0.96359419	      0.91396710	      0.46879693	     -3.46060510	      3.72817064	    -17.35539050	     12.26394598	     12.26394598	     19.90229241	      2.35312694	     -3.31234195	     30.87788955	     -4.11523896	     -1.38140603	     23.36319442	     23.36319442	      2.61223854	    -11.09661250	      6.24737993	     -6.06245644	      5.42983620	      4.92639103	     45.15701635	    -17.66973640	    -10.05526614	     77.78607447	     45.09985837	      0.00000000	      0.00000000	    -15.97234188	     -6.30905597	      6.12810755	     21.68014974	     44.64159775	      0.00000000	      0.00000000
     34.35642857	     -4.14446954	     -4.17429329	      6.75151480	      0.96518923	      0.91386810	      0.46650082	     -3.81410623	      3.27400264	    -17.15318518	     12.73446668	     12.73446668	     19.95648564	      2.34817240	     -3.29921985	     30.41921661	     -3.83186681	     -1.33335836	     23.84512290	     23.84512290	      2.68209979	    -11.52015689	      6.10215033	     -5.90836265	      5.28549466	      4.95328805	     44.80072367	    -17.47035770	    -10.05186375	     77.85445518	     45.09684795	      0.00000000	      0.00000000	    -15.81274647	     -6.09633844	      6.18181908	     21.75280031	     44.63684607	      0.00000000	      0.00000000
     34.36857143	     -4.33431294	     -3.88451916	      6.55586209	      0.96624864	      0.91379074	      0.46388385	     -3.43751128	      2.46920350	    -17.12661660	     14.32473890	     14.32473890	     20.26389083	      2.19965074	     -3.39668036	     30.12515431	     -3.32436768	     -1.02238220	     24.18228244	     24.18228244	      2.57820447	    -12.61251667	      5.94885217	     -5.73398559	      5.08798721	      4.91940325	     44.39901531	    -17.31327735	    -10.33868266	     78.38333161	     45.09169927	      0.00000000	      0.00000000	    -15.43774074	     -5.98731419	      6.31390813	     21.77811163	     44.63177443	      0.00000000	      0.00000000
     34.38071429	     -4.39236466	     -3.62409763	      6.41941116	      0.96742445	      0.91430108	      0.46105572	     -3.36931306	      1.75276767	    -17.11342990	     15.55717692	     15.55717692	     20.29514853	      2.18277981	     -3.54303866	     29.71649467	     -2.88298719	     -0.83759908	     24.52225664	     24.52225664	      2.78048583	    -13.32594487	      5.80758107	     -5.67568929	      4.98434613	      4.90439166	     43.80581708	    -17.20362306	    -10.55470819	     78.59493784	     45.09306361	      0.00000000	      0.00000000	    -14.91251515	     -5.85845796	      6.42352014	     21.82240947	     44.63254632	      0.00000000	      0.00000000
     34.39285714	     -4.47491134	     -3.37977977	      6.31202535	      0.96842832	      0.91507303	      0.45808708	     -3.10570772	      0.96365850	    -17.21788545	     17.08401640	     17.08401640	     20.18311543	      2.26140204	     -3.92307227	     29.31513562	     -2.43535242	     -0.62289498	     24.76269729	     24.76269729	      3.08796258	    -14.02316994	      5.82572034	     -5.59482051	      4.87100143	      4.92149886	     42.91571160	    -17.09341376	    -10.85198316	     78.74026527	     45.09944881	      0.00000000	      0.00000000	    -14.17025843	     -5.70327158	      6.55942502	     21.84791093	     44.63783314	      0.00000000	      0.00000000
     34.40500000	     -4.56027363	     -3.11454624	      6.20791772	      0.96930960	      0.91607960	      0.45493208	     -2.72696554	      0.07883467	    -17.32974954	     18.79447508	     18.79447508	     19.88805273	      2.40571169	     -4.60218366	     28.89485399	     -1.97140386	     -0.50144151	     24.94586946	     24.94586946	      3.52182515	    -14.54568331	      6.01467631	     -5.55833024	      4.78103261	      4.93116804	     42.00297547	    -17.07026833	    -11.18575923	     78.73456752	     45.11226148	      0.00000000	      0.00000000	    -13.31107293	     -5.58136969	      6.67507664	     21.91037530	     44.65058076	      0.00000000	      0.00000000
     34.41714286	     -4.47843386	     -2.90206351	      6.12476113	      0.97035184	      0.91742946	      0.45172166	     -2.52215723	     -0.73521301	    -17.40217649	     20.50007354	     20.50007354	     19.47437699	      2.44588894	     -5.34446862	     28.28008419	     -1.60735452	     -0.50316940	     25.13132436	     25.13132436	      4.12693758	    -14.87291330	      6.14065021	     -5.66113345	      4.77256605	      4.85410868	     40.98885814	    -16.97822097	    -11.38004709	     78.46987510	     45.12660118	      0.00000000	      0.00000000	    -12.41732772	     -5.48392211	      6.73130046	     22.11389636	     44.66883995	      0.00000000	      0.00000000
     34.42928571	     -4.44791286	     -2.70103787	      6.01688866	      0.97129717	      0.91879298	      0.44843998	     -2.10737368	     -1.62167653	    -17.44737731	     22.46766210	     22.46766210	     18.89529599	      2.49920939	     -6.27882296	     27.65797239	     -1.25950243	     -0.57755877	     25.19849867	     25.19849867	      4.73391568	    -15.08693719	      6.30108059	     -5.69248009	      4.78242088	      4.78840324	     39.85686759	    -16.91285626	    -11.57255041	     78.01439925	     45.14602761	      0.00000000	      0.00000000	    -11.47714481	     -5.42565444	      6.74319171	     22.42161924	     44.69362988	      0.00000000	      0.00000000
     34.44142857	     -4.49728984	     -2.52933864	      5.91371225	      0.97216436	      0.92003884	      0.44519020	     -1.45523255	     -2.55537931	    -17.46874127	     24.67451597	     24.67451597	     18.04108545	      2.59056168	     -7.73665270	     27.06143688	     -0.93072565	     -0.64797088	     25.15256937	     25.15256937	      5.37305192	    -15.18204512	      6.60858934	     -5.60258262	      4.81174711	      4.83833002	     38.56306280	    -16.87651467	    -11.87514590	     77.34185361	     45.17626526	      0.00000000	      0.00000000	    -10.42541568	     -5.35752514	      6.70752237	     22.86993684	     44.73076396	      0.00000000	      0.00000000
     34.45357143	     -4.43875967	     -2.38239986	      5.77880589	      0.97310061	      0.92134203	      0.44204476	     -0.82122051	     -3.45577884	    -17.31397485	     27.00680652	     27.00680652	     17.01665452	      2.45615341	     -9.24546988	     26.32433134	     -0.67886079	     -0.84401979	     25.09668102	     25.09668102	      6.04190757	    -15.14715239	      6.78489484	     -5.61609383	      4.87720524	      4.82698155	     37.21262126	    -16.78905954	    -12.12714262	     76.52094628	     45.20865711	      0.00000000	      0.00000000	     -9.38792845	     -5.37566589	      6.62176104	     23.41067015	     44.77344988	      0.00000000	      0.00000000
     34.46571429	     -4.44098582	     -2.25150149	      5.61287444	      0.97391718	      0.92243626	      0.43898198	      0.04215857	     -4.36514483	    -16.94026873	     29.55110600	     29.55110600	     15.69021860	      2.11960972	    -10.99617107	     25.64161885	     -0.45481982	     -1.07347888	     25.00678648	     25.00678648	      6.69796103	    -14.97658100	      6.88772381	     -5.58867320	      4.94564308	      4.86916079	     35.78715490	    -16.71691025	    -12.41156316	     75.46583665	     45.24936619	      0.00000000	      0.00000000	     -8.33147304	     -5.44214105	      6.47126600	     24.09866181	     44.82600740	      0.00000000	      0.00000000
     34.47785714	     -4.37721518	     -2.26672641	      5.47265006	      0.97474128	      0.92353805	      0.43627076	      0.70152213	     -4.91452403	    -16.27986810	     31.41570979	     31.41570979	     11.81844153	      0.03002457	    -19.05716353	     24.95304663	     -0.42318986	     -1.28139337	     25.04428907	     25.04428907	      7.78419459	    -14.52303958	      7.82977962	     -5.60234358	      5.10138671	      4.76397050	     34.62493613	    -16.05866843	    -13.72851143	     73.34313173	     45.36808623	      0.00000000	      0.00000000	     -7.57459860	     -5.54338642	      5.51968510	     25.76396284	     45.04600029	      0.00000000	      0.00000000
     34.49000000	     -4.32599371	     -2.17629639	      5.29021970	      0.97542236	      0.92435932	      0.43360792	      1.89578604	     -5.76123957	    -15.56571810	     34.52725719	     34.52725719	     10.42633885	     -0.61586986	    -19.66506729	     24.20689508	     -0.29637486	     -1.61308871	     24.93038481	     24.93038481	      8.33488451	    -14.24633732	      7.54302108	     -5.64308876	      5.16517995	      4.67917393	     33.08161598	    -15.95044374	    -13.56110415	     72.31681662	     45.39034974	      0.00000000	      0.00000000	     -6.39959004	     -5.69037294	      5.35535476	     26.38213812	     45.09716259	      0.00000000	      0.00000000
     34.50214286	     -4.25846621	     -2.12645223	      5.12804233	      0.97592117	      0.92506043	      0.43105313	      3.20741009	     -6.48458039	    -14.65181940	     37.71522036	     37.71522036	      8.76492139	     -1.55532329	    -20.17241628	     23.47658715	     -0.20865788	     -1.90605689	     24.84263173	     24.84263173	      8.88303199	    -13.95110157	      7.22445982	     -5.74037685	      5.33506819	      4.65074079	     31.47256786	    -15.83256012	    -13.53112718	     71.00583040	     45.42637204	      0.00000000	      0.00000000	     -5.13862667	     -5.89411962	      5.15043168	     27.18235422	     45.15336233	      0.00000000	      0.00000000
     34.51428571	     -4.22661975	     -2.08845566	      4.92963947	      0.97620599	      0.92552849	      0.42889990	      4.78515515	     -7.09060166	    -13.47269824	     41.12347844	     41.12347844	      6.87495139	     -2.87413681	    -20.50991272	     22.81083480	     -0.16933907	     -2.22600734	     24.77309326	     24.77309326	      9.43734479	    -13.61880119	      6.85623827	     -5.77057763	      5.34533679	      4.68570959	     29.83453518	    -15.70468092	    -13.57544032	     69.43849228	     45.47332544	      0.00000000	      0.00000000	     -3.80609122	     -6.15121140	      4.89741384	     28.13913957	     45.21611401	      0.00000000	      0.00000000
